<svg xmlns="http://www.w3.org/2000/svg" xmlns:xlink="http://www.w3.org/1999/xlink" width="500" zoomAndPan="magnify" viewBox="0 0 375 374.999991" height="500" preserveAspectRatio="xMidYMid meet" version="1.0"><defs><g/><clipPath id="e26a6c84e5"><path d="M 263.835938 166.851562 L 305.132812 166.851562 L 305.132812 208.148438 L 263.835938 208.148438 Z M 263.835938 166.851562 " clip-rule="nonzero"/></clipPath><clipPath id="24e849faf1"><path d="M 284.484375 166.851562 C 273.078125 166.851562 263.835938 176.09375 263.835938 187.5 C 263.835938 198.90625 273.078125 208.148438 284.484375 208.148438 C 295.886719 208.148438 305.132812 198.90625 305.132812 187.5 C 305.132812 176.09375 295.886719 166.851562 284.484375 166.851562 Z M 284.484375 166.851562 " clip-rule="nonzero"/></clipPath><clipPath id="31c131a480"><path d="M 22.859375 8.820312 L 96.683594 8.820312 L 96.683594 82.640625 L 22.859375 82.640625 Z M 22.859375 8.820312 " clip-rule="nonzero"/></clipPath><clipPath id="62fc4eadc6"><path d="M 59.769531 8.820312 C 39.386719 8.820312 22.859375 25.34375 22.859375 45.730469 C 22.859375 66.117188 39.386719 82.640625 59.769531 82.640625 C 80.15625 82.640625 96.683594 66.117188 96.683594 45.730469 C 96.683594 25.34375 80.15625 8.820312 59.769531 8.820312 Z M 59.769531 8.820312 " clip-rule="nonzero"/></clipPath><clipPath id="3b68c76d46"><path d="M 275.761719 178.777344 L 293.207031 178.777344 L 293.207031 196.222656 L 275.761719 196.222656 Z M 275.761719 178.777344 " clip-rule="nonzero"/></clipPath><clipPath id="1d8b36ff33"><path d="M 284.484375 178.777344 C 279.667969 178.777344 275.761719 182.683594 275.761719 187.5 C 275.761719 192.316406 279.667969 196.222656 284.484375 196.222656 C 289.300781 196.222656 293.207031 192.316406 293.207031 187.5 C 293.207031 182.683594 289.300781 178.777344 284.484375 178.777344 Z M 284.484375 178.777344 " clip-rule="nonzero"/></clipPath><clipPath id="02e1c9c9d0"><path d="M 59.769531 45.730469 L 80.492188 45.730469 L 80.492188 66.453125 L 59.769531 66.453125 Z M 59.769531 45.730469 " clip-rule="nonzero"/></clipPath><clipPath id="0ad06b1316"><path d="M 70.132812 45.730469 C 64.410156 45.730469 59.769531 50.371094 59.769531 56.09375 C 59.769531 61.8125 64.410156 66.453125 70.132812 66.453125 C 75.855469 66.453125 80.492188 61.8125 80.492188 56.09375 C 80.492188 50.371094 75.855469 45.730469 70.132812 45.730469 Z M 70.132812 45.730469 " clip-rule="nonzero"/></clipPath></defs><rect x="-37.5" width="450" fill="#ffffff" y="-37.499999" height="449.999989" fill-opacity="1"/><rect x="-37.5" width="450" fill="#000000" y="-37.499999" height="449.999989" fill-opacity="1"/><g fill="#ffffff" fill-opacity="1"><g transform="translate(29.346423, 233.372424)"><g><path d="M 85.765625 -197.921875 C 96.285156 -197.921875 106.570312 -196.390625 116.625 -193.328125 C 126.6875 -190.265625 134.148438 -187.242188 139.015625 -184.265625 L 146.09375 -179.546875 L 128.1875 -144.203125 C 126.769531 -145.140625 124.800781 -146.351562 122.28125 -147.84375 C 119.769531 -149.34375 115.054688 -151.347656 108.140625 -153.859375 C 101.234375 -156.378906 94.796875 -157.640625 88.828125 -157.640625 C 81.441406 -157.640625 75.742188 -156.066406 71.734375 -152.921875 C 67.734375 -149.773438 65.734375 -145.535156 65.734375 -140.203125 C 65.734375 -137.523438 66.675781 -135.046875 68.5625 -132.765625 C 70.445312 -130.492188 73.664062 -128.0625 78.21875 -125.46875 C 82.78125 -122.875 86.785156 -120.789062 90.234375 -119.21875 C 93.691406 -117.65625 99.035156 -115.300781 106.265625 -112.15625 C 118.828125 -106.8125 129.546875 -99.546875 138.421875 -90.359375 C 147.304688 -81.171875 151.75 -70.765625 151.75 -59.140625 C 151.75 -47.984375 149.742188 -38.242188 145.734375 -29.921875 C 141.722656 -21.597656 136.222656 -15.078125 129.234375 -10.359375 C 122.242188 -5.648438 114.507812 -2.160156 106.03125 0.109375 C 97.550781 2.390625 88.363281 3.53125 78.46875 3.53125 C 69.976562 3.53125 61.648438 2.664062 53.484375 0.9375 C 45.316406 -0.789062 38.484375 -2.945312 32.984375 -5.53125 C 27.484375 -8.125 22.535156 -10.675781 18.140625 -13.1875 C 13.742188 -15.707031 10.523438 -17.832031 8.484375 -19.5625 L 5.421875 -22.15625 L 27.5625 -59.375 C 29.445312 -57.800781 32.039062 -55.796875 35.34375 -53.359375 C 38.644531 -50.929688 44.492188 -47.675781 52.890625 -43.59375 C 61.296875 -39.507812 68.722656 -37.46875 75.171875 -37.46875 C 93.859375 -37.46875 103.203125 -43.828125 103.203125 -56.546875 C 103.203125 -59.222656 102.535156 -61.695312 101.203125 -63.96875 C 99.867188 -66.25 97.507812 -68.523438 94.125 -70.796875 C 90.75 -73.078125 87.765625 -74.882812 85.171875 -76.21875 C 82.585938 -77.5625 78.347656 -79.601562 72.453125 -82.34375 C 66.566406 -85.09375 62.207031 -87.175781 59.375 -88.59375 C 47.59375 -94.40625 38.484375 -101.671875 32.046875 -110.390625 C 25.609375 -119.109375 22.390625 -128.492188 22.390625 -138.546875 C 22.390625 -155.984375 28.828125 -170.238281 41.703125 -181.3125 C 54.585938 -192.382812 69.273438 -197.921875 85.765625 -197.921875 Z M 85.765625 -197.921875 "/></g></g></g><g fill="#ffffff" fill-opacity="1"><g transform="translate(168.178344, 286.796187)"><g><path d="M 196.875 0 L 134 0 L 60.203125 -84.96875 L 60.203125 0 L 14.5625 0 L 14.5625 -200.265625 L 60.203125 -200.265625 L 60.203125 -118.46875 L 128.90625 -200.265625 L 184.25 -200.265625 L 103.65625 -105.359375 Z M 196.875 0 "/></g></g></g><g clip-path="url(#e26a6c84e5)"><g clip-path="url(#24e849faf1)"><path fill="#000000" d="M 263.835938 166.851562 L 305.132812 166.851562 L 305.132812 208.148438 L 263.835938 208.148438 Z M 263.835938 166.851562 " fill-opacity="1" fill-rule="nonzero"/></g></g><g clip-path="url(#31c131a480)"><g clip-path="url(#62fc4eadc6)"><path fill="#000000" d="M 22.859375 8.820312 L 96.683594 8.820312 L 96.683594 82.640625 L 22.859375 82.640625 Z M 22.859375 8.820312 " fill-opacity="1" fill-rule="nonzero"/></g></g><g clip-path="url(#3b68c76d46)"><g clip-path="url(#1d8b36ff33)"><path fill="#5e17eb" d="M 275.761719 178.777344 L 293.207031 178.777344 L 293.207031 196.222656 L 275.761719 196.222656 Z M 275.761719 178.777344 " fill-opacity="1" fill-rule="nonzero"/></g></g><g fill="#5e17eb" fill-opacity="1"><g transform="translate(87.545531, 331.098297)"><g><path d="M 9.90625 -7.265625 C 10.457031 -6.929688 10.878906 -6.503906 11.171875 -5.984375 C 11.460938 -5.472656 11.609375 -4.878906 11.609375 -4.203125 C 11.609375 -3.554688 11.457031 -2.957031 11.15625 -2.40625 C 10.851562 -1.863281 10.421875 -1.378906 9.859375 -0.953125 C 9.359375 -0.566406 8.785156 -0.269531 8.140625 -0.0625 C 7.503906 0.132812 6.828125 0.242188 6.109375 0.265625 C 5.390625 0.265625 4.703125 0.164062 4.046875 -0.03125 C 3.398438 -0.238281 2.828125 -0.539062 2.328125 -0.9375 C 1.566406 -1.507812 1.050781 -2.195312 0.78125 -3 L 3.5625 -4.296875 C 3.5625 -4.160156 3.609375 -3.992188 3.703125 -3.796875 C 3.796875 -3.597656 3.941406 -3.40625 4.140625 -3.21875 C 4.335938 -3.03125 4.59375 -2.867188 4.90625 -2.734375 C 5.226562 -2.609375 5.625 -2.546875 6.09375 -2.546875 C 6.457031 -2.546875 6.78125 -2.59375 7.0625 -2.6875 C 7.351562 -2.78125 7.59375 -2.894531 7.78125 -3.03125 C 7.976562 -3.164062 8.125 -3.320312 8.21875 -3.5 C 8.320312 -3.6875 8.375 -3.875 8.375 -4.0625 C 8.375 -4.269531 8.300781 -4.46875 8.15625 -4.65625 C 8.019531 -4.84375 7.804688 -4.988281 7.515625 -5.09375 C 6.984375 -5.28125 6.421875 -5.4375 5.828125 -5.5625 C 5.242188 -5.6875 4.671875 -5.84375 4.109375 -6.03125 C 3.554688 -6.226562 3.039062 -6.484375 2.5625 -6.796875 C 2.082031 -7.117188 1.707031 -7.566406 1.4375 -8.140625 C 1.175781 -8.640625 1.046875 -9.175781 1.046875 -9.75 C 1.046875 -10.382812 1.195312 -11 1.5 -11.59375 C 1.800781 -12.1875 2.207031 -12.691406 2.71875 -13.109375 C 3.21875 -13.492188 3.769531 -13.785156 4.375 -13.984375 C 4.988281 -14.191406 5.632812 -14.296875 6.3125 -14.296875 C 6.976562 -14.296875 7.617188 -14.195312 8.234375 -14 C 8.859375 -13.800781 9.414062 -13.507812 9.90625 -13.125 C 10.382812 -12.769531 10.765625 -12.351562 11.046875 -11.875 L 8.765625 -10.328125 C 8.492188 -10.710938 8.144531 -11.019531 7.71875 -11.25 C 7.300781 -11.476562 6.835938 -11.59375 6.328125 -11.59375 C 5.609375 -11.59375 5.050781 -11.429688 4.65625 -11.109375 C 4.269531 -10.796875 4.078125 -10.378906 4.078125 -9.859375 C 4.078125 -9.617188 4.1875 -9.40625 4.40625 -9.21875 C 4.625 -9.039062 4.90625 -8.878906 5.25 -8.734375 C 5.601562 -8.585938 6 -8.457031 6.4375 -8.34375 C 6.875 -8.226562 7.304688 -8.113281 7.734375 -8 C 8.171875 -7.894531 8.582031 -7.78125 8.96875 -7.65625 C 9.351562 -7.539062 9.664062 -7.410156 9.90625 -7.265625 Z M 9.90625 -7.265625 "/></g></g></g><g fill="#5e17eb" fill-opacity="1"><g transform="translate(102.518849, 331.098297)"><g><path d="M 9.609375 -14.109375 L 15.5 0 L 12.234375 0 L 10.953125 -3.015625 L 4.96875 -3.015625 L 3.71875 0 L 0.4375 0 L 6.328125 -14.109375 Z M 9.828125 -5.765625 L 7.96875 -10.203125 L 6.125 -5.765625 Z M 9.828125 -5.765625 "/></g></g></g><g fill="#5e17eb" fill-opacity="1"><g transform="translate(121.170701, 331.098297)"><g><path d="M 6.0625 -14.109375 L 6.0625 -11.5625 L 5.015625 -11.5625 L 5.015625 -2.53125 L 6.0625 -2.53125 L 6.0625 0 L 0.9375 0 L 0.9375 -2.53125 L 1.984375 -2.53125 L 1.984375 -11.5625 L 0.9375 -11.5625 L 0.9375 -14.109375 Z M 6.0625 -14.109375 "/></g></g></g><g fill="#5e17eb" fill-opacity="1"><g transform="translate(130.874752, 331.098297)"><g><path d="M 6.640625 -14.109375 C 7.660156 -14.109375 8.5625 -13.921875 9.34375 -13.546875 C 10.125 -13.171875 10.773438 -12.664062 11.296875 -12.03125 C 11.828125 -11.394531 12.226562 -10.644531 12.5 -9.78125 C 12.769531 -8.925781 12.90625 -8.015625 12.90625 -7.046875 C 12.90625 -6.054688 12.757812 -5.132812 12.46875 -4.28125 C 12.1875 -3.425781 11.796875 -2.679688 11.296875 -2.046875 C 10.796875 -1.410156 10.195312 -0.910156 9.5 -0.546875 C 8.8125 -0.179688 8.066406 0 7.265625 0 L 0.953125 0 L 0.953125 -14.109375 Z M 6.65625 -2.71875 C 7.226562 -2.71875 7.71875 -2.832031 8.125 -3.0625 C 8.53125 -3.300781 8.863281 -3.617188 9.125 -4.015625 C 9.394531 -4.410156 9.59375 -4.867188 9.71875 -5.390625 C 9.84375 -5.910156 9.90625 -6.453125 9.90625 -7.015625 C 9.90625 -7.585938 9.84375 -8.132812 9.71875 -8.65625 C 9.601562 -9.1875 9.410156 -9.648438 9.140625 -10.046875 C 8.878906 -10.441406 8.539062 -10.757812 8.125 -11 C 7.71875 -11.238281 7.226562 -11.359375 6.65625 -11.359375 L 3.984375 -11.359375 L 3.984375 -2.71875 Z M 6.65625 -2.71875 "/></g></g></g><g fill="#5e17eb" fill-opacity="1"><g transform="translate(147.180297, 331.098297)"><g/></g></g><g fill="#5e17eb" fill-opacity="1"><g transform="translate(155.373166, 331.098297)"><g><path d="M 7.078125 -7.65625 L 13.890625 0 L 10.171875 0 L 5.171875 -5.75 L 3.953125 -4.515625 L 3.953125 0 L 0.9375 0 L 0.9375 -14.109375 L 3.953125 -14.109375 L 3.953125 -8.390625 L 9.625 -14.109375 L 13.484375 -14.109375 Z M 7.078125 -7.65625 "/></g></g></g><g fill="#5e17eb" fill-opacity="1"><g transform="translate(172.25534, 331.098297)"><g><path d="M 7.59375 -14.296875 C 8.550781 -14.296875 9.453125 -14.101562 10.296875 -13.71875 C 11.148438 -13.332031 11.890625 -12.804688 12.515625 -12.140625 C 13.148438 -11.484375 13.648438 -10.71875 14.015625 -9.84375 C 14.378906 -8.96875 14.5625 -8.035156 14.5625 -7.046875 C 14.5625 -6.054688 14.378906 -5.117188 14.015625 -4.234375 C 13.648438 -3.347656 13.148438 -2.570312 12.515625 -1.90625 C 11.890625 -1.25 11.148438 -0.722656 10.296875 -0.328125 C 9.453125 0.0664062 8.550781 0.265625 7.59375 0.265625 C 6.644531 0.265625 5.742188 0.0664062 4.890625 -0.328125 C 4.046875 -0.722656 3.3125 -1.25 2.6875 -1.90625 C 2.0625 -2.570312 1.566406 -3.347656 1.203125 -4.234375 C 0.835938 -5.117188 0.65625 -6.054688 0.65625 -7.046875 C 0.65625 -8.035156 0.835938 -8.96875 1.203125 -9.84375 C 1.566406 -10.71875 2.0625 -11.484375 2.6875 -12.140625 C 3.3125 -12.804688 4.046875 -13.332031 4.890625 -13.71875 C 5.742188 -14.101562 6.644531 -14.296875 7.59375 -14.296875 Z M 7.59375 -2.75 C 8.132812 -2.75 8.644531 -2.859375 9.125 -3.078125 C 9.601562 -3.304688 10.019531 -3.613281 10.375 -4 C 10.738281 -4.394531 11.019531 -4.847656 11.21875 -5.359375 C 11.425781 -5.878906 11.53125 -6.441406 11.53125 -7.046875 C 11.53125 -7.640625 11.425781 -8.195312 11.21875 -8.71875 C 11.019531 -9.238281 10.738281 -9.695312 10.375 -10.09375 C 10.019531 -10.488281 9.601562 -10.796875 9.125 -11.015625 C 8.644531 -11.242188 8.132812 -11.359375 7.59375 -11.359375 C 7.050781 -11.359375 6.539062 -11.242188 6.0625 -11.015625 C 5.582031 -10.796875 5.164062 -10.488281 4.8125 -10.09375 C 4.457031 -9.695312 4.175781 -9.238281 3.96875 -8.71875 C 3.757812 -8.195312 3.65625 -7.640625 3.65625 -7.046875 C 3.65625 -6.441406 3.757812 -5.878906 3.96875 -5.359375 C 4.175781 -4.847656 4.457031 -4.394531 4.8125 -4 C 5.164062 -3.613281 5.582031 -3.304688 6.0625 -3.078125 C 6.539062 -2.859375 7.050781 -2.75 7.59375 -2.75 Z M 7.59375 -2.75 "/></g></g></g><g fill="#5e17eb" fill-opacity="1"><g transform="translate(190.191374, 331.098297)"><g><path d="M 8.90625 -14.109375 L 11.921875 -14.109375 L 11.921875 -5.09375 C 11.921875 -4.382812 11.773438 -3.707031 11.484375 -3.0625 C 11.191406 -2.414062 10.789062 -1.84375 10.28125 -1.34375 C 9.78125 -0.851562 9.191406 -0.460938 8.515625 -0.171875 C 7.847656 0.117188 7.128906 0.265625 6.359375 0.265625 C 5.609375 0.265625 4.894531 0.117188 4.21875 -0.171875 C 3.539062 -0.460938 2.953125 -0.851562 2.453125 -1.34375 C 1.953125 -1.84375 1.554688 -2.414062 1.265625 -3.0625 C 0.972656 -3.707031 0.828125 -4.382812 0.828125 -5.09375 L 0.828125 -14.109375 L 3.84375 -14.109375 L 3.84375 -5.6875 C 3.84375 -5.289062 3.90625 -4.914062 4.03125 -4.5625 C 4.164062 -4.207031 4.34375 -3.894531 4.5625 -3.625 C 4.789062 -3.351562 5.0625 -3.140625 5.375 -2.984375 C 5.6875 -2.828125 6.015625 -2.75 6.359375 -2.75 C 6.722656 -2.75 7.054688 -2.828125 7.359375 -2.984375 C 7.660156 -3.140625 7.925781 -3.351562 8.15625 -3.625 C 8.394531 -3.894531 8.578125 -4.207031 8.703125 -4.5625 C 8.835938 -4.914062 8.90625 -5.289062 8.90625 -5.6875 Z M 8.90625 -14.109375 "/></g></g></g><g fill="#5e17eb" fill-opacity="1"><g transform="translate(205.641901, 331.098297)"><g><path d="M 11.078125 -9.90625 C 11.078125 -9.457031 11.015625 -9.03125 10.890625 -8.625 C 10.765625 -8.21875 10.585938 -7.84375 10.359375 -7.5 C 10.140625 -7.164062 9.867188 -6.867188 9.546875 -6.609375 C 9.222656 -6.347656 8.878906 -6.140625 8.515625 -5.984375 L 13.1875 0 L 9.671875 0 L 5.3125 -5.6875 L 3.953125 -5.6875 L 3.953125 0 L 0.9375 0 L 0.9375 -14.109375 L 7.015625 -14.109375 C 7.578125 -14.109375 8.101562 -14 8.59375 -13.78125 C 9.09375 -13.5625 9.523438 -13.257812 9.890625 -12.875 C 10.253906 -12.5 10.539062 -12.054688 10.75 -11.546875 C 10.96875 -11.035156 11.078125 -10.488281 11.078125 -9.90625 Z M 6.640625 -8.4375 C 7.023438 -8.4375 7.359375 -8.578125 7.640625 -8.859375 C 7.921875 -9.140625 8.0625 -9.488281 8.0625 -9.90625 C 8.0625 -10.300781 7.921875 -10.640625 7.640625 -10.921875 C 7.359375 -11.210938 7.023438 -11.359375 6.640625 -11.359375 L 3.953125 -11.359375 L 3.953125 -8.4375 Z M 6.640625 -8.4375 "/></g></g></g><g fill="#5e17eb" fill-opacity="1"><g transform="translate(222.026978, 331.098297)"><g><path d="M 9.765625 -7.671875 C 10.328125 -7.285156 10.769531 -6.789062 11.09375 -6.1875 C 11.425781 -5.59375 11.59375 -4.929688 11.59375 -4.203125 C 11.59375 -3.617188 11.476562 -3.070312 11.25 -2.5625 C 11.03125 -2.050781 10.726562 -1.601562 10.34375 -1.21875 C 9.957031 -0.84375 9.507812 -0.546875 9 -0.328125 C 8.488281 -0.109375 7.941406 0 7.359375 0 L 0.953125 0 L 0.953125 -14.109375 L 7.15625 -14.109375 C 7.6875 -14.109375 8.179688 -14.003906 8.640625 -13.796875 C 9.109375 -13.585938 9.519531 -13.3125 9.875 -12.96875 C 10.226562 -12.625 10.503906 -12.21875 10.703125 -11.75 C 10.898438 -11.289062 11 -10.796875 11 -10.265625 C 11 -9.691406 10.890625 -9.1875 10.671875 -8.75 C 10.453125 -8.320312 10.148438 -7.960938 9.765625 -7.671875 Z M 3.984375 -8.8125 L 7.15625 -8.8125 C 7.519531 -8.8125 7.828125 -8.9375 8.078125 -9.1875 C 8.328125 -9.4375 8.453125 -9.742188 8.453125 -10.109375 C 8.453125 -10.460938 8.328125 -10.757812 8.078125 -11 C 7.828125 -11.238281 7.519531 -11.359375 7.15625 -11.359375 L 3.984375 -11.359375 Z M 7.359375 -2.71875 C 7.753906 -2.71875 8.09375 -2.882812 8.375 -3.21875 C 8.65625 -3.5625 8.796875 -3.960938 8.796875 -4.421875 C 8.796875 -4.878906 8.65625 -5.265625 8.375 -5.578125 C 8.09375 -5.898438 7.753906 -6.0625 7.359375 -6.0625 L 3.984375 -6.0625 L 3.984375 -2.71875 Z M 7.359375 -2.71875 "/></g></g></g><g fill="#5e17eb" fill-opacity="1"><g transform="translate(237.059949, 331.098297)"><g><path d="M 6.0625 -14.109375 L 6.0625 -11.5625 L 5.015625 -11.5625 L 5.015625 -2.53125 L 6.0625 -2.53125 L 6.0625 0 L 0.9375 0 L 0.9375 -2.53125 L 1.984375 -2.53125 L 1.984375 -11.5625 L 0.9375 -11.5625 L 0.9375 -14.109375 Z M 6.0625 -14.109375 "/></g></g></g><g fill="#5e17eb" fill-opacity="1"><g transform="translate(246.764007, 331.098297)"><g><path d="M 9.90625 -7.265625 C 10.457031 -6.929688 10.878906 -6.503906 11.171875 -5.984375 C 11.460938 -5.472656 11.609375 -4.878906 11.609375 -4.203125 C 11.609375 -3.554688 11.457031 -2.957031 11.15625 -2.40625 C 10.851562 -1.863281 10.421875 -1.378906 9.859375 -0.953125 C 9.359375 -0.566406 8.785156 -0.269531 8.140625 -0.0625 C 7.503906 0.132812 6.828125 0.242188 6.109375 0.265625 C 5.390625 0.265625 4.703125 0.164062 4.046875 -0.03125 C 3.398438 -0.238281 2.828125 -0.539062 2.328125 -0.9375 C 1.566406 -1.507812 1.050781 -2.195312 0.78125 -3 L 3.5625 -4.296875 C 3.5625 -4.160156 3.609375 -3.992188 3.703125 -3.796875 C 3.796875 -3.597656 3.941406 -3.40625 4.140625 -3.21875 C 4.335938 -3.03125 4.59375 -2.867188 4.90625 -2.734375 C 5.226562 -2.609375 5.625 -2.546875 6.09375 -2.546875 C 6.457031 -2.546875 6.78125 -2.59375 7.0625 -2.6875 C 7.351562 -2.78125 7.59375 -2.894531 7.78125 -3.03125 C 7.976562 -3.164062 8.125 -3.320312 8.21875 -3.5 C 8.320312 -3.6875 8.375 -3.875 8.375 -4.0625 C 8.375 -4.269531 8.300781 -4.46875 8.15625 -4.65625 C 8.019531 -4.84375 7.804688 -4.988281 7.515625 -5.09375 C 6.984375 -5.28125 6.421875 -5.4375 5.828125 -5.5625 C 5.242188 -5.6875 4.671875 -5.84375 4.109375 -6.03125 C 3.554688 -6.226562 3.039062 -6.484375 2.5625 -6.796875 C 2.082031 -7.117188 1.707031 -7.566406 1.4375 -8.140625 C 1.175781 -8.640625 1.046875 -9.175781 1.046875 -9.75 C 1.046875 -10.382812 1.195312 -11 1.5 -11.59375 C 1.800781 -12.1875 2.207031 -12.691406 2.71875 -13.109375 C 3.21875 -13.492188 3.769531 -13.785156 4.375 -13.984375 C 4.988281 -14.191406 5.632812 -14.296875 6.3125 -14.296875 C 6.976562 -14.296875 7.617188 -14.195312 8.234375 -14 C 8.859375 -13.800781 9.414062 -13.507812 9.90625 -13.125 C 10.382812 -12.769531 10.765625 -12.351562 11.046875 -11.875 L 8.765625 -10.328125 C 8.492188 -10.710938 8.144531 -11.019531 7.71875 -11.25 C 7.300781 -11.476562 6.835938 -11.59375 6.328125 -11.59375 C 5.609375 -11.59375 5.050781 -11.429688 4.65625 -11.109375 C 4.269531 -10.796875 4.078125 -10.378906 4.078125 -9.859375 C 4.078125 -9.617188 4.1875 -9.40625 4.40625 -9.21875 C 4.625 -9.039062 4.90625 -8.878906 5.25 -8.734375 C 5.601562 -8.585938 6 -8.457031 6.4375 -8.34375 C 6.875 -8.226562 7.304688 -8.113281 7.734375 -8 C 8.171875 -7.894531 8.582031 -7.78125 8.96875 -7.65625 C 9.351562 -7.539062 9.664062 -7.410156 9.90625 -7.265625 Z M 9.90625 -7.265625 "/></g></g></g><g fill="#5e17eb" fill-opacity="1"><g transform="translate(261.737331, 331.098297)"><g><path d="M 9.90625 -7.265625 C 10.457031 -6.929688 10.878906 -6.503906 11.171875 -5.984375 C 11.460938 -5.472656 11.609375 -4.878906 11.609375 -4.203125 C 11.609375 -3.554688 11.457031 -2.957031 11.15625 -2.40625 C 10.851562 -1.863281 10.421875 -1.378906 9.859375 -0.953125 C 9.359375 -0.566406 8.785156 -0.269531 8.140625 -0.0625 C 7.503906 0.132812 6.828125 0.242188 6.109375 0.265625 C 5.390625 0.265625 4.703125 0.164062 4.046875 -0.03125 C 3.398438 -0.238281 2.828125 -0.539062 2.328125 -0.9375 C 1.566406 -1.507812 1.050781 -2.195312 0.78125 -3 L 3.5625 -4.296875 C 3.5625 -4.160156 3.609375 -3.992188 3.703125 -3.796875 C 3.796875 -3.597656 3.941406 -3.40625 4.140625 -3.21875 C 4.335938 -3.03125 4.59375 -2.867188 4.90625 -2.734375 C 5.226562 -2.609375 5.625 -2.546875 6.09375 -2.546875 C 6.457031 -2.546875 6.78125 -2.59375 7.0625 -2.6875 C 7.351562 -2.78125 7.59375 -2.894531 7.78125 -3.03125 C 7.976562 -3.164062 8.125 -3.320312 8.21875 -3.5 C 8.320312 -3.6875 8.375 -3.875 8.375 -4.0625 C 8.375 -4.269531 8.300781 -4.46875 8.15625 -4.65625 C 8.019531 -4.84375 7.804688 -4.988281 7.515625 -5.09375 C 6.984375 -5.28125 6.421875 -5.4375 5.828125 -5.5625 C 5.242188 -5.6875 4.671875 -5.84375 4.109375 -6.03125 C 3.554688 -6.226562 3.039062 -6.484375 2.5625 -6.796875 C 2.082031 -7.117188 1.707031 -7.566406 1.4375 -8.140625 C 1.175781 -8.640625 1.046875 -9.175781 1.046875 -9.75 C 1.046875 -10.382812 1.195312 -11 1.5 -11.59375 C 1.800781 -12.1875 2.207031 -12.691406 2.71875 -13.109375 C 3.21875 -13.492188 3.769531 -13.785156 4.375 -13.984375 C 4.988281 -14.191406 5.632812 -14.296875 6.3125 -14.296875 C 6.976562 -14.296875 7.617188 -14.195312 8.234375 -14 C 8.859375 -13.800781 9.414062 -13.507812 9.90625 -13.125 C 10.382812 -12.769531 10.765625 -12.351562 11.046875 -11.875 L 8.765625 -10.328125 C 8.492188 -10.710938 8.144531 -11.019531 7.71875 -11.25 C 7.300781 -11.476562 6.835938 -11.59375 6.328125 -11.59375 C 5.609375 -11.59375 5.050781 -11.429688 4.65625 -11.109375 C 4.269531 -10.796875 4.078125 -10.378906 4.078125 -9.859375 C 4.078125 -9.617188 4.1875 -9.40625 4.40625 -9.21875 C 4.625 -9.039062 4.90625 -8.878906 5.25 -8.734375 C 5.601562 -8.585938 6 -8.457031 6.4375 -8.34375 C 6.875 -8.226562 7.304688 -8.113281 7.734375 -8 C 8.171875 -7.894531 8.582031 -7.78125 8.96875 -7.65625 C 9.351562 -7.539062 9.664062 -7.410156 9.90625 -7.265625 Z M 9.90625 -7.265625 "/></g></g></g><g fill="#5e17eb" fill-opacity="1"><g transform="translate(276.710654, 331.098297)"><g><path d="M 0.953125 -14.109375 L 9.765625 -14.109375 L 9.765625 -11.359375 L 3.984375 -11.359375 L 3.984375 -8.8125 L 9.0625 -8.8125 L 9.0625 -6.0625 L 3.984375 -6.0625 L 3.984375 -2.71875 L 9.765625 -2.71875 L 9.765625 0 L 0.953125 0 Z M 0.953125 -14.109375 "/></g></g></g><g clip-path="url(#02e1c9c9d0)"><g clip-path="url(#0ad06b1316)"><path fill="#5e17eb" d="M 59.769531 45.730469 L 80.492188 45.730469 L 80.492188 66.453125 L 59.769531 66.453125 Z M 59.769531 45.730469 " fill-opacity="1" fill-rule="nonzero"/></g></g></svg>