<svg xmlns="http://www.w3.org/2000/svg" xmlns:xlink="http://www.w3.org/1999/xlink" width="500" zoomAndPan="magnify" viewBox="0 0 375 374.999991" height="500" preserveAspectRatio="xMidYMid meet" version="1.0"><defs><g/></defs><g fill="#845ec2" fill-opacity="1"><g transform="translate(-1.076367, 283.540455)"><g><path d="M 25.140625 -156.65625 C 25.140625 -167.570312 27.769531 -176.632812 33.03125 -183.84375 C 38.289062 -191.050781 45.15625 -196.648438 53.625 -200.640625 C 62.101562 -204.640625 71.410156 -207.078125 81.546875 -207.953125 C 91.679688 -208.828125 101.71875 -208.289062 111.65625 -206.34375 C 121.59375 -204.394531 130.601562 -201.179688 138.6875 -196.703125 C 146.769531 -192.222656 152.859375 -186.570312 156.953125 -179.75 L 156.953125 -149.0625 C 149.546875 -164.0625 140.972656 -175.75 131.234375 -184.125 C 121.492188 -192.507812 111.457031 -198.210938 101.125 -201.234375 C 90.800781 -204.253906 80.960938 -205.082031 71.609375 -203.71875 C 62.253906 -202.351562 54.164062 -199.332031 47.34375 -194.65625 C 41.695312 -190.957031 37.847656 -186.28125 35.796875 -180.625 C 33.753906 -174.976562 34.335938 -168.597656 37.546875 -161.484375 C 40.765625 -154.367188 47.242188 -146.816406 56.984375 -138.828125 C 66.734375 -130.835938 80.472656 -122.65625 98.203125 -114.28125 C 108.921875 -109.800781 119.003906 -104.734375 128.453125 -99.078125 C 137.910156 -93.429688 145.609375 -86.613281 151.546875 -78.625 C 157.492188 -70.632812 160.46875 -60.890625 160.46875 -49.390625 C 160.46875 -41.597656 158.957031 -34.632812 155.9375 -28.5 C 152.914062 -22.363281 148.773438 -17.148438 143.515625 -12.859375 C 135.128906 -6.429688 125.09375 -2.335938 113.40625 -0.578125 C 101.71875 1.171875 89.488281 0.78125 76.71875 -1.75 C 63.957031 -4.28125 51.726562 -8.90625 40.03125 -15.625 C 28.34375 -22.351562 18.410156 -30.976562 10.234375 -41.5 L 10.234375 -82.125 C 17.441406 -64.007812 26.5 -48.910156 37.40625 -36.828125 C 48.320312 -24.742188 60.0625 -15.78125 72.625 -9.9375 C 85.195312 -4.09375 97.472656 -1.554688 109.453125 -2.328125 C 121.441406 -3.109375 132.015625 -7.398438 141.171875 -15.203125 C 146.046875 -19.296875 149.113281 -24.117188 150.375 -29.671875 C 151.644531 -35.222656 150.476562 -41.40625 146.875 -48.21875 C 143.269531 -55.039062 136.644531 -62.203125 127 -69.703125 C 117.351562 -77.210938 104.050781 -84.863281 87.09375 -92.65625 C 76.570312 -97.332031 66.585938 -102.492188 57.140625 -108.140625 C 47.691406 -113.796875 39.992188 -120.519531 34.046875 -128.3125 C 28.109375 -136.101562 25.140625 -145.550781 25.140625 -156.65625 Z M 25.140625 -156.65625 "/></g></g></g><g fill="#000000" fill-opacity="1"><g transform="translate(161.098103, 229.141281)"><g><path d="M 83.109375 -117.328125 C 76.796875 -117.328125 71.5 -115.953125 67.21875 -113.203125 C 62.9375 -110.453125 59.570312 -107.34375 57.125 -103.875 C 54.6875 -100.414062 52.957031 -97.664062 51.9375 -95.625 C 46.238281 -82.59375 41.804688 -68.382812 38.640625 -53 C 35.484375 -37.625 33.90625 -19.957031 33.90625 0 L 10.6875 0 L 10.6875 -215.703125 L 33.90625 -215.703125 L 33.90625 -39.109375 C 36.351562 -58.046875 40.425781 -74.796875 46.125 -89.359375 C 51.832031 -103.929688 58.960938 -117.476562 67.515625 -130 C 76.078125 -142.53125 85.753906 -155.210938 96.546875 -168.046875 C 96.546875 -168.046875 97.5625 -169.316406 99.59375 -171.859375 C 101.632812 -174.410156 103.976562 -177.617188 106.625 -181.484375 C 109.28125 -185.359375 111.625 -189.484375 113.65625 -193.859375 C 115.695312 -198.234375 116.765625 -202.40625 116.859375 -206.375 C 116.960938 -210.351562 115.382812 -213.460938 112.125 -215.703125 L 162.84375 -215.703125 C 157.550781 -214.679688 152.207031 -212.644531 146.8125 -209.59375 C 141.414062 -206.539062 136.472656 -203.28125 131.984375 -199.8125 C 127.503906 -196.351562 123.890625 -193.398438 121.140625 -190.953125 C 118.390625 -188.515625 116.914062 -187.296875 116.71875 -187.296875 C 104.894531 -173.640625 94.046875 -160.703125 84.171875 -148.484375 C 74.296875 -136.265625 65.691406 -123.226562 58.359375 -109.375 C 61.003906 -112.03125 64.363281 -114.425781 68.4375 -116.5625 C 72.507812 -118.695312 77.398438 -119.765625 83.109375 -119.765625 C 93.898438 -119.765625 102.859375 -117.78125 109.984375 -113.8125 C 117.117188 -109.84375 123.078125 -104.597656 127.859375 -98.078125 C 132.648438 -91.554688 136.828125 -84.320312 140.390625 -76.375 C 143.953125 -68.4375 147.46875 -60.492188 150.9375 -52.546875 C 155.007812 -43.585938 159.03125 -35.285156 163 -27.640625 C 166.96875 -20.003906 171.5 -13.894531 176.59375 -9.3125 C 181.6875 -4.726562 187.796875 -2.4375 194.921875 -2.4375 L 194.921875 0 C 179.035156 0 166.457031 -2.132812 157.1875 -6.40625 C 147.925781 -10.6875 140.898438 -16.289062 136.109375 -23.21875 C 131.328125 -30.144531 127.96875 -37.78125 126.03125 -46.125 C 124.09375 -54.476562 122.515625 -62.832031 121.296875 -71.1875 C 120.078125 -79.539062 118.394531 -87.175781 116.25 -94.09375 C 114.113281 -101.019531 110.550781 -106.625 105.5625 -110.90625 C 100.570312 -115.1875 93.085938 -117.328125 83.109375 -117.328125 Z M 83.109375 -117.328125 "/></g></g></g><g fill="#000000" fill-opacity="1"><g transform="translate(53.489221, 324.015624)"><g><path d="M 3.125 -19.5 C 3.125 -20.851562 3.453125 -21.976562 4.109375 -22.875 C 4.765625 -23.769531 5.617188 -24.46875 6.671875 -24.96875 C 7.722656 -25.46875 8.878906 -25.769531 10.140625 -25.875 C 11.410156 -25.988281 12.660156 -25.921875 13.890625 -25.671875 C 15.128906 -25.429688 16.25 -25.03125 17.25 -24.46875 C 18.257812 -23.914062 19.019531 -23.21875 19.53125 -22.375 L 19.53125 -18.546875 C 18.613281 -20.421875 17.546875 -21.878906 16.328125 -22.921875 C 15.117188 -23.960938 13.867188 -24.671875 12.578125 -25.046875 C 11.296875 -25.421875 10.070312 -25.519531 8.90625 -25.34375 C 7.75 -25.175781 6.742188 -24.800781 5.890625 -24.21875 C 5.191406 -23.757812 4.710938 -23.175781 4.453125 -22.46875 C 4.203125 -21.769531 4.273438 -20.976562 4.671875 -20.09375 C 5.078125 -19.207031 5.882812 -18.265625 7.09375 -17.265625 C 8.300781 -16.273438 10.007812 -15.257812 12.21875 -14.21875 C 13.550781 -13.664062 14.804688 -13.035156 15.984375 -12.328125 C 17.160156 -11.628906 18.117188 -10.78125 18.859375 -9.78125 C 19.597656 -8.789062 19.96875 -7.578125 19.96875 -6.140625 C 19.96875 -5.171875 19.78125 -4.304688 19.40625 -3.546875 C 19.03125 -2.785156 18.515625 -2.132812 17.859375 -1.59375 C 16.816406 -0.800781 15.566406 -0.296875 14.109375 -0.078125 C 12.660156 0.140625 11.140625 0.09375 9.546875 -0.21875 C 7.960938 -0.53125 6.441406 -1.101562 4.984375 -1.9375 C 3.523438 -2.78125 2.285156 -3.859375 1.265625 -5.171875 L 1.265625 -10.21875 C 2.171875 -7.96875 3.300781 -6.085938 4.65625 -4.578125 C 6.007812 -3.078125 7.46875 -1.960938 9.03125 -1.234375 C 10.601562 -0.503906 12.132812 -0.1875 13.625 -0.28125 C 15.113281 -0.382812 16.425781 -0.921875 17.5625 -1.890625 C 18.175781 -2.398438 18.5625 -3 18.71875 -3.6875 C 18.875 -4.382812 18.726562 -5.15625 18.28125 -6 C 17.832031 -6.851562 17.003906 -7.742188 15.796875 -8.671875 C 14.597656 -9.609375 12.945312 -10.5625 10.84375 -11.53125 C 9.53125 -12.113281 8.285156 -12.753906 7.109375 -13.453125 C 5.929688 -14.160156 4.972656 -15 4.234375 -15.96875 C 3.492188 -16.9375 3.125 -18.113281 3.125 -19.5 Z M 3.125 -19.5 "/></g></g></g><g fill="#000000" fill-opacity="1"><g transform="translate(76.070982, 324.015624)"><g><path d="M 18.953125 0 L 14.84375 -9.859375 C 13.289062 -9.710938 12.007812 -9.394531 11 -8.90625 C 10 -8.425781 9.1875 -7.835938 8.5625 -7.140625 C 7.945312 -6.453125 7.453125 -5.734375 7.078125 -4.984375 C 6.703125 -4.234375 6.367188 -3.53125 6.078125 -2.875 C 5.734375 -1.976562 5.359375 -1.234375 4.953125 -0.640625 C 4.554688 -0.046875 3.945312 0.238281 3.125 0.21875 C 3.03125 0.195312 2.941406 0.171875 2.859375 0.140625 C 2.773438 0.117188 2.671875 0.0625 2.546875 -0.03125 C 1.554688 -0.46875 1.15625 -1.523438 1.34375 -3.203125 C 1.4375 -4.003906 1.609375 -4.90625 1.859375 -5.90625 C 2.117188 -6.914062 2.46875 -8.003906 2.90625 -9.171875 C 3.5625 -10.910156 4.332031 -12.753906 5.21875 -14.703125 C 6.101562 -16.660156 7.035156 -18.59375 8.015625 -20.5 C 9.003906 -22.40625 9.957031 -24.132812 10.875 -25.6875 L 11.125 -25.6875 L 22 0 Z M 14.734375 -10.109375 L 9.390625 -22.546875 C 8.273438 -20.410156 7.148438 -18.160156 6.015625 -15.796875 C 4.890625 -13.441406 3.941406 -11.207031 3.171875 -9.09375 C 2.734375 -7.925781 2.382812 -6.84375 2.125 -5.84375 C 1.875 -4.851562 1.695312 -3.972656 1.59375 -3.203125 C 1.570312 -2.453125 1.632812 -1.816406 1.78125 -1.296875 C 1.925781 -0.773438 2.21875 -0.441406 2.65625 -0.296875 C 2.78125 -0.265625 2.867188 -0.238281 2.921875 -0.21875 C 2.984375 -0.195312 3.066406 -0.160156 3.171875 -0.109375 C 3.890625 -0.0546875 4.429688 -0.304688 4.796875 -0.859375 C 5.160156 -1.421875 5.488281 -2.117188 5.78125 -2.953125 C 6.070312 -3.628906 6.410156 -4.347656 6.796875 -5.109375 C 7.191406 -5.867188 7.707031 -6.597656 8.34375 -7.296875 C 8.988281 -8.003906 9.820312 -8.613281 10.84375 -9.125 C 11.863281 -9.632812 13.160156 -9.960938 14.734375 -10.109375 Z M 14.734375 -10.109375 "/></g></g></g><g fill="#000000" fill-opacity="1"><g transform="translate(100.689081, 324.015624)"><g><path d="M 1.265625 0 L 1.265625 -25.6875 L 4 -25.6875 L 4 0 Z M 1.265625 0 "/></g></g></g><g fill="#000000" fill-opacity="1"><g transform="translate(107.307376, 324.015624)"><g><path d="M 9.5625 0 L 1.265625 0 L 1.265625 -25.6875 L 9.5625 -25.6875 C 11.3125 -25.6875 12.945312 -25.351562 14.46875 -24.6875 C 16 -24.019531 17.351562 -23.097656 18.53125 -21.921875 C 19.707031 -20.742188 20.628906 -19.378906 21.296875 -17.828125 C 21.960938 -16.273438 22.296875 -14.597656 22.296875 -12.796875 C 22.296875 -11.035156 21.960938 -9.378906 21.296875 -7.828125 C 20.628906 -6.273438 19.707031 -4.910156 18.53125 -3.734375 C 17.351562 -2.554688 16 -1.640625 14.46875 -0.984375 C 12.945312 -0.328125 11.3125 0 9.5625 0 Z M 4.109375 -25.421875 L 4.109375 -0.296875 L 9.5625 -0.296875 C 10.945312 -0.296875 12.242188 -0.613281 13.453125 -1.25 C 14.671875 -1.894531 15.738281 -2.789062 16.65625 -3.9375 C 17.582031 -5.09375 18.304688 -6.421875 18.828125 -7.921875 C 19.347656 -9.429688 19.609375 -11.054688 19.609375 -12.796875 C 19.609375 -14.546875 19.347656 -16.175781 18.828125 -17.6875 C 18.304688 -19.207031 17.582031 -20.550781 16.65625 -21.71875 C 15.738281 -22.882812 14.671875 -23.789062 13.453125 -24.4375 C 12.242188 -25.09375 10.945312 -25.421875 9.5625 -25.421875 Z M 4.109375 -25.421875 "/></g></g></g><g fill="#000000" fill-opacity="1"><g transform="translate(132.216385, 324.015624)"><g/></g></g><g fill="#845ec2" fill-opacity="1"><g transform="translate(143.711871, 324.015624)"><g><path d="M 9.890625 -13.96875 C 9.140625 -13.96875 8.507812 -13.800781 8 -13.46875 C 7.488281 -13.144531 7.085938 -12.773438 6.796875 -12.359375 C 6.503906 -11.953125 6.300781 -11.628906 6.1875 -11.390625 C 5.507812 -9.835938 4.976562 -8.144531 4.59375 -6.3125 C 4.21875 -4.476562 4.03125 -2.375 4.03125 0 L 1.265625 0 L 1.265625 -25.6875 L 4.03125 -25.6875 L 4.03125 -4.65625 C 4.320312 -6.90625 4.804688 -8.894531 5.484375 -10.625 C 6.171875 -12.363281 7.019531 -13.976562 8.03125 -15.46875 C 9.050781 -16.96875 10.207031 -18.476562 11.5 -20 C 11.5 -20 11.617188 -20.148438 11.859375 -20.453125 C 12.097656 -20.765625 12.375 -21.148438 12.6875 -21.609375 C 13.007812 -22.066406 13.289062 -22.554688 13.53125 -23.078125 C 13.769531 -23.597656 13.894531 -24.09375 13.90625 -24.5625 C 13.925781 -25.039062 13.738281 -25.414062 13.34375 -25.6875 L 19.390625 -25.6875 C 18.753906 -25.5625 18.113281 -25.316406 17.46875 -24.953125 C 16.832031 -24.585938 16.242188 -24.195312 15.703125 -23.78125 C 15.171875 -23.375 14.742188 -23.023438 14.421875 -22.734375 C 14.097656 -22.441406 13.921875 -22.296875 13.890625 -22.296875 C 12.484375 -20.671875 11.191406 -19.128906 10.015625 -17.671875 C 8.835938 -16.222656 7.816406 -14.671875 6.953125 -13.015625 C 7.265625 -13.335938 7.660156 -13.625 8.140625 -13.875 C 8.628906 -14.132812 9.210938 -14.265625 9.890625 -14.265625 C 11.179688 -14.265625 12.25 -14.023438 13.09375 -13.546875 C 13.945312 -13.078125 14.65625 -12.453125 15.21875 -11.671875 C 15.789062 -10.898438 16.285156 -10.039062 16.703125 -9.09375 C 17.128906 -8.144531 17.550781 -7.195312 17.96875 -6.25 C 18.457031 -5.1875 18.9375 -4.195312 19.40625 -3.28125 C 19.875 -2.375 20.410156 -1.648438 21.015625 -1.109375 C 21.628906 -0.566406 22.359375 -0.296875 23.203125 -0.296875 L 23.203125 0 C 21.316406 0 19.820312 -0.253906 18.71875 -0.765625 C 17.613281 -1.273438 16.773438 -1.941406 16.203125 -2.765625 C 15.628906 -3.585938 15.226562 -4.492188 15 -5.484375 C 14.769531 -6.484375 14.582031 -7.476562 14.4375 -8.46875 C 14.289062 -9.46875 14.085938 -10.378906 13.828125 -11.203125 C 13.578125 -12.023438 13.15625 -12.691406 12.5625 -13.203125 C 11.96875 -13.710938 11.078125 -13.96875 9.890625 -13.96875 Z M 9.890625 -13.96875 "/></g></g></g><g fill="#845ec2" fill-opacity="1"><g transform="translate(169.529952, 324.015624)"><g><path d="M 10.875 -25.3125 C 12.570312 -25.800781 14.253906 -25.921875 15.921875 -25.671875 C 17.597656 -25.429688 19.15625 -24.882812 20.59375 -24.03125 C 22.039062 -23.1875 23.285156 -22.085938 24.328125 -20.734375 C 25.378906 -19.378906 26.117188 -17.835938 26.546875 -16.109375 C 27.035156 -14.410156 27.164062 -12.722656 26.9375 -11.046875 C 26.707031 -9.378906 26.171875 -7.816406 25.328125 -6.359375 C 24.492188 -4.910156 23.40625 -3.65625 22.0625 -2.59375 C 20.71875 -1.539062 19.179688 -0.785156 17.453125 -0.328125 C 15.753906 0.160156 14.066406 0.285156 12.390625 0.046875 C 10.722656 -0.179688 9.164062 -0.71875 7.71875 -1.5625 C 6.28125 -2.414062 5.039062 -3.515625 4 -4.859375 C 2.957031 -6.203125 2.191406 -7.75 1.703125 -9.5 C 1.242188 -11.21875 1.140625 -12.914062 1.390625 -14.59375 C 1.648438 -16.28125 2.195312 -17.847656 3.03125 -19.296875 C 3.875 -20.742188 4.960938 -21.992188 6.296875 -23.046875 C 7.628906 -24.097656 9.15625 -24.851562 10.875 -25.3125 Z M 10.90625 -25.03125 C 9.351562 -24.632812 8.085938 -23.910156 7.109375 -22.859375 C 6.128906 -21.804688 5.394531 -20.5625 4.90625 -19.125 C 4.425781 -17.695312 4.171875 -16.207031 4.140625 -14.65625 C 4.117188 -13.101562 4.289062 -11.632812 4.65625 -10.25 C 5.019531 -8.875 5.59375 -7.53125 6.375 -6.21875 C 7.164062 -4.90625 8.125 -3.742188 9.25 -2.734375 C 10.382812 -1.734375 11.640625 -1.019531 13.015625 -0.59375 C 14.398438 -0.175781 15.859375 -0.171875 17.390625 -0.578125 C 18.941406 -0.992188 20.210938 -1.726562 21.203125 -2.78125 C 22.203125 -3.832031 22.941406 -5.070312 23.421875 -6.5 C 23.910156 -7.9375 24.175781 -9.429688 24.21875 -10.984375 C 24.269531 -12.535156 24.113281 -14.003906 23.75 -15.390625 C 23.382812 -16.796875 22.800781 -18.160156 22 -19.484375 C 21.207031 -20.804688 20.242188 -21.960938 19.109375 -22.953125 C 17.984375 -23.941406 16.726562 -24.644531 15.34375 -25.0625 C 13.96875 -25.476562 12.488281 -25.46875 10.90625 -25.03125 Z M 10.90625 -25.03125 "/></g></g></g><g fill="#845ec2" fill-opacity="1"><g transform="translate(199.202541, 324.015624)"><g><path d="M 4.140625 -25.71875 L 4.140625 -9.3125 C 4.140625 -7.8125 4.425781 -6.421875 5 -5.140625 C 5.570312 -3.867188 6.351562 -2.816406 7.34375 -1.984375 C 8.34375 -1.148438 9.488281 -0.613281 10.78125 -0.375 C 12.082031 -0.144531 13.457031 -0.300781 14.90625 -0.84375 C 16.65625 -1.46875 18.019531 -2.515625 19 -3.984375 C 19.988281 -5.453125 20.484375 -7.226562 20.484375 -9.3125 C 20.484375 -10.664062 20.460938 -12.128906 20.421875 -13.703125 C 20.390625 -15.285156 20.289062 -16.847656 20.125 -18.390625 C 19.96875 -19.929688 19.71875 -21.34375 19.375 -22.625 C 19.039062 -23.90625 18.570312 -24.9375 17.96875 -25.71875 L 20.8125 -25.71875 L 20.8125 -9.3125 C 20.8125 -7.300781 20.316406 -5.507812 19.328125 -3.9375 C 18.347656 -2.375 16.898438 -1.242188 14.984375 -0.546875 C 13.359375 0.0351562 11.734375 0.25 10.109375 0.09375 C 8.484375 -0.0625 7.003906 -0.539062 5.671875 -1.34375 C 4.335938 -2.144531 3.269531 -3.222656 2.46875 -4.578125 C 1.664062 -5.941406 1.265625 -7.519531 1.265625 -9.3125 L 1.265625 -25.71875 Z M 4.140625 -25.71875 "/></g></g></g><g fill="#845ec2" fill-opacity="1"><g transform="translate(222.620658, 324.015624)"><g><path d="M 11.5625 -14.1875 C 12.820312 -13.894531 13.835938 -13.335938 14.609375 -12.515625 C 15.390625 -11.691406 16.039062 -10.722656 16.5625 -9.609375 C 17.082031 -8.492188 17.585938 -7.363281 18.078125 -6.21875 C 18.535156 -5.175781 19.003906 -4.195312 19.484375 -3.28125 C 19.972656 -2.375 20.519531 -1.648438 21.125 -1.109375 C 21.738281 -0.566406 22.445312 -0.296875 23.25 -0.296875 L 23.25 0 C 21.351562 0 19.851562 -0.253906 18.75 -0.765625 C 17.644531 -1.273438 16.8125 -1.945312 16.25 -2.78125 C 15.695312 -3.613281 15.300781 -4.523438 15.0625 -5.515625 C 14.820312 -6.515625 14.632812 -7.507812 14.5 -8.5 C 14.363281 -9.5 14.164062 -10.414062 13.90625 -11.25 C 13.65625 -12.09375 13.234375 -12.769531 12.640625 -13.28125 C 12.046875 -13.789062 11.164062 -14.046875 10 -14.046875 C 8.15625 -14.046875 6.675781 -14.914062 5.5625 -16.65625 C 4.9375 -17.675781 4.460938 -18.925781 4.140625 -20.40625 L 4.140625 0 L 1.265625 0 L 1.265625 -25.71875 L 7.671875 -25.71875 C 9.460938 -25.71875 11.09375 -25.519531 12.5625 -25.125 C 14.03125 -24.738281 15.207031 -24.128906 16.09375 -23.296875 C 16.976562 -22.460938 17.421875 -21.351562 17.421875 -19.96875 C 17.421875 -18.78125 17.15625 -17.78125 16.625 -16.96875 C 16.09375 -16.15625 15.382812 -15.523438 14.5 -15.078125 C 13.613281 -14.628906 12.632812 -14.332031 11.5625 -14.1875 Z M 14.546875 -19.96875 C 14.546875 -21.351562 14.21875 -22.441406 13.5625 -23.234375 C 12.90625 -24.035156 12.054688 -24.597656 11.015625 -24.921875 C 9.972656 -25.253906 8.859375 -25.421875 7.671875 -25.421875 L 4.140625 -25.421875 L 4.140625 -23.171875 C 4.140625 -21.835938 4.289062 -20.648438 4.59375 -19.609375 C 4.90625 -18.566406 5.3125 -17.644531 5.8125 -16.84375 C 6.320312 -16.09375 6.941406 -15.476562 7.671875 -15 C 8.398438 -14.53125 9.175781 -14.296875 10 -14.296875 L 10.25 -14.296875 C 11.414062 -14.367188 12.421875 -14.851562 13.265625 -15.75 C 14.117188 -16.644531 14.546875 -18.050781 14.546875 -19.96875 Z M 14.546875 -19.96875 "/></g></g></g><g fill="#845ec2" fill-opacity="1"><g transform="translate(248.475109, 324.015624)"><g><path d="M 12.046875 -14.15625 C 13.566406 -14.050781 14.914062 -13.773438 16.09375 -13.328125 C 17.269531 -12.878906 18.191406 -12.164062 18.859375 -11.1875 C 19.523438 -10.207031 19.859375 -8.851562 19.859375 -7.125 C 19.859375 -5.1875 19.414062 -3.703125 18.53125 -2.671875 C 17.644531 -1.640625 16.445312 -0.941406 14.9375 -0.578125 C 13.4375 -0.210938 11.753906 -0.0195312 9.890625 0 L 1.265625 0 L 1.265625 -25.6875 L 7.5625 -25.6875 C 9.382812 -25.6875 11.039062 -25.488281 12.53125 -25.09375 C 14.019531 -24.707031 15.203125 -24.085938 16.078125 -23.234375 C 16.953125 -22.390625 17.390625 -21.265625 17.390625 -19.859375 C 17.390625 -18.234375 16.867188 -16.953125 15.828125 -16.015625 C 14.785156 -15.085938 13.523438 -14.46875 12.046875 -14.15625 Z M 17.03125 -7.125 C 17.03125 -8.75 16.8125 -10.019531 16.375 -10.9375 C 15.9375 -11.863281 15.359375 -12.546875 14.640625 -12.984375 C 13.921875 -13.421875 13.148438 -13.691406 12.328125 -13.796875 C 11.503906 -13.910156 10.691406 -13.96875 9.890625 -13.96875 C 9.046875 -13.96875 8.238281 -14.203125 7.46875 -14.671875 C 6.707031 -15.148438 6.0625 -15.800781 5.53125 -16.625 C 5.21875 -17.101562 4.941406 -17.648438 4.703125 -18.265625 C 4.472656 -18.890625 4.285156 -19.554688 4.140625 -20.265625 L 4.140625 -0.296875 L 9.609375 -0.296875 C 10.429688 -0.296875 11.269531 -0.347656 12.125 -0.453125 C 12.988281 -0.566406 13.789062 -0.832031 14.53125 -1.25 C 15.269531 -1.675781 15.867188 -2.351562 16.328125 -3.28125 C 16.796875 -4.21875 17.03125 -5.5 17.03125 -7.125 Z M 14.546875 -19.859375 C 14.546875 -21.242188 14.207031 -22.34375 13.53125 -23.15625 C 12.851562 -23.96875 11.976562 -24.546875 10.90625 -24.890625 C 9.84375 -25.242188 8.726562 -25.421875 7.5625 -25.421875 L 4.140625 -25.421875 L 4.140625 -23.03125 C 4.140625 -21.769531 4.285156 -20.609375 4.578125 -19.546875 C 4.867188 -18.492188 5.28125 -17.582031 5.8125 -16.8125 C 6.882812 -15.113281 8.242188 -14.265625 9.890625 -14.265625 C 10.710938 -14.265625 11.472656 -14.457031 12.171875 -14.84375 C 12.878906 -15.226562 13.453125 -15.832031 13.890625 -16.65625 C 14.328125 -17.476562 14.546875 -18.546875 14.546875 -19.859375 Z M 14.546875 -19.859375 "/></g></g></g><g fill="#845ec2" fill-opacity="1"><g transform="translate(270.947779, 324.015624)"><g><path d="M 1.265625 0 L 1.265625 -25.6875 L 4 -25.6875 L 4 0 Z M 1.265625 0 "/></g></g></g><g fill="#845ec2" fill-opacity="1"><g transform="translate(277.56608, 324.015624)"><g><path d="M 3.125 -19.5 C 3.125 -20.851562 3.453125 -21.976562 4.109375 -22.875 C 4.765625 -23.769531 5.617188 -24.46875 6.671875 -24.96875 C 7.722656 -25.46875 8.878906 -25.769531 10.140625 -25.875 C 11.410156 -25.988281 12.660156 -25.921875 13.890625 -25.671875 C 15.128906 -25.429688 16.25 -25.03125 17.25 -24.46875 C 18.257812 -23.914062 19.019531 -23.21875 19.53125 -22.375 L 19.53125 -18.546875 C 18.613281 -20.421875 17.546875 -21.878906 16.328125 -22.921875 C 15.117188 -23.960938 13.867188 -24.671875 12.578125 -25.046875 C 11.296875 -25.421875 10.070312 -25.519531 8.90625 -25.34375 C 7.75 -25.175781 6.742188 -24.800781 5.890625 -24.21875 C 5.191406 -23.757812 4.710938 -23.175781 4.453125 -22.46875 C 4.203125 -21.769531 4.273438 -20.976562 4.671875 -20.09375 C 5.078125 -19.207031 5.882812 -18.265625 7.09375 -17.265625 C 8.300781 -16.273438 10.007812 -15.257812 12.21875 -14.21875 C 13.550781 -13.664062 14.804688 -13.035156 15.984375 -12.328125 C 17.160156 -11.628906 18.117188 -10.78125 18.859375 -9.78125 C 19.597656 -8.789062 19.96875 -7.578125 19.96875 -6.140625 C 19.96875 -5.171875 19.78125 -4.304688 19.40625 -3.546875 C 19.03125 -2.785156 18.515625 -2.132812 17.859375 -1.59375 C 16.816406 -0.800781 15.566406 -0.296875 14.109375 -0.078125 C 12.660156 0.140625 11.140625 0.09375 9.546875 -0.21875 C 7.960938 -0.53125 6.441406 -1.101562 4.984375 -1.9375 C 3.523438 -2.78125 2.285156 -3.859375 1.265625 -5.171875 L 1.265625 -10.21875 C 2.171875 -7.96875 3.300781 -6.085938 4.65625 -4.578125 C 6.007812 -3.078125 7.46875 -1.960938 9.03125 -1.234375 C 10.601562 -0.503906 12.132812 -0.1875 13.625 -0.28125 C 15.113281 -0.382812 16.425781 -0.921875 17.5625 -1.890625 C 18.175781 -2.398438 18.5625 -3 18.71875 -3.6875 C 18.875 -4.382812 18.726562 -5.15625 18.28125 -6 C 17.832031 -6.851562 17.003906 -7.742188 15.796875 -8.671875 C 14.597656 -9.609375 12.945312 -10.5625 10.84375 -11.53125 C 9.53125 -12.113281 8.285156 -12.753906 7.109375 -13.453125 C 5.929688 -14.160156 4.972656 -15 4.234375 -15.96875 C 3.492188 -16.9375 3.125 -18.113281 3.125 -19.5 Z M 3.125 -19.5 "/></g></g></g><g fill="#845ec2" fill-opacity="1"><g transform="translate(300.147835, 324.015624)"><g><path d="M 3.125 -19.5 C 3.125 -20.851562 3.453125 -21.976562 4.109375 -22.875 C 4.765625 -23.769531 5.617188 -24.46875 6.671875 -24.96875 C 7.722656 -25.46875 8.878906 -25.769531 10.140625 -25.875 C 11.410156 -25.988281 12.660156 -25.921875 13.890625 -25.671875 C 15.128906 -25.429688 16.25 -25.03125 17.25 -24.46875 C 18.257812 -23.914062 19.019531 -23.21875 19.53125 -22.375 L 19.53125 -18.546875 C 18.613281 -20.421875 17.546875 -21.878906 16.328125 -22.921875 C 15.117188 -23.960938 13.867188 -24.671875 12.578125 -25.046875 C 11.296875 -25.421875 10.070312 -25.519531 8.90625 -25.34375 C 7.75 -25.175781 6.742188 -24.800781 5.890625 -24.21875 C 5.191406 -23.757812 4.710938 -23.175781 4.453125 -22.46875 C 4.203125 -21.769531 4.273438 -20.976562 4.671875 -20.09375 C 5.078125 -19.207031 5.882812 -18.265625 7.09375 -17.265625 C 8.300781 -16.273438 10.007812 -15.257812 12.21875 -14.21875 C 13.550781 -13.664062 14.804688 -13.035156 15.984375 -12.328125 C 17.160156 -11.628906 18.117188 -10.78125 18.859375 -9.78125 C 19.597656 -8.789062 19.96875 -7.578125 19.96875 -6.140625 C 19.96875 -5.171875 19.78125 -4.304688 19.40625 -3.546875 C 19.03125 -2.785156 18.515625 -2.132812 17.859375 -1.59375 C 16.816406 -0.800781 15.566406 -0.296875 14.109375 -0.078125 C 12.660156 0.140625 11.140625 0.09375 9.546875 -0.21875 C 7.960938 -0.53125 6.441406 -1.101562 4.984375 -1.9375 C 3.523438 -2.78125 2.285156 -3.859375 1.265625 -5.171875 L 1.265625 -10.21875 C 2.171875 -7.96875 3.300781 -6.085938 4.65625 -4.578125 C 6.007812 -3.078125 7.46875 -1.960938 9.03125 -1.234375 C 10.601562 -0.503906 12.132812 -0.1875 13.625 -0.28125 C 15.113281 -0.382812 16.425781 -0.921875 17.5625 -1.890625 C 18.175781 -2.398438 18.5625 -3 18.71875 -3.6875 C 18.875 -4.382812 18.726562 -5.15625 18.28125 -6 C 17.832031 -6.851562 17.003906 -7.742188 15.796875 -8.671875 C 14.597656 -9.609375 12.945312 -10.5625 10.84375 -11.53125 C 9.53125 -12.113281 8.285156 -12.753906 7.109375 -13.453125 C 5.929688 -14.160156 4.972656 -15 4.234375 -15.96875 C 3.492188 -16.9375 3.125 -18.113281 3.125 -19.5 Z M 3.125 -19.5 "/></g></g></g><g fill="#845ec2" fill-opacity="1"><g transform="translate(322.729591, 324.015624)"><g><path d="M 4.078125 -17.125 L 4.078125 -0.296875 L 10.21875 -0.296875 C 11.789062 -0.296875 13.082031 -0.679688 14.09375 -1.453125 C 15.101562 -2.234375 15.9375 -3.546875 16.59375 -5.390625 L 15.75 0 L 1.265625 0 L 1.265625 -25.6875 L 15.96875 -25.6875 L 15.96875 -22.765625 C 15.125 -23.585938 14.300781 -24.1875 13.5 -24.5625 C 12.695312 -24.945312 11.789062 -25.1875 10.78125 -25.28125 C 9.78125 -25.375 8.539062 -25.421875 7.0625 -25.421875 L 4.078125 -25.421875 L 4.078125 -19.53125 C 4.078125 -17.882812 4.351562 -16.625 4.90625 -15.75 C 5.46875 -14.875 6.304688 -14.285156 7.421875 -13.984375 C 8.535156 -13.679688 9.929688 -13.53125 11.609375 -13.53125 L 11.609375 -10.65625 C 11.066406 -11.257812 10.425781 -11.738281 9.6875 -12.09375 C 8.945312 -12.445312 8.195312 -12.8125 7.4375 -13.1875 C 6.675781 -13.5625 5.988281 -14.046875 5.375 -14.640625 C 4.769531 -15.234375 4.335938 -16.0625 4.078125 -17.125 Z M 4.078125 -17.125 "/></g></g></g></svg>